<svg xmlns="http://www.w3.org/2000/svg" width="390" height="844" viewBox="0 0 390 844">
<rect width="390" height="844" fill="#F5F8FC"/>
<rect x="0" y="0" width="390" height="75" rx="0" fill="#FFFFFF"/>
<text x="18" y="15" font-family="Inter,Arial,sans-serif" font-size="9" font-weight="600" fill="#1E3550" text-anchor="start" opacity="1">9:41</text>
<text x="325" y="15" font-family="Inter,Arial,sans-serif" font-size="9" font-weight="600" fill="#1E3550" text-anchor="start" opacity="1">▰  ▰</text>
<circle cx="32" cy="43" r="15" fill="#EAF1F8" stroke="#B78A55" stroke-width="1.3"/>
<circle cx="32" cy="43" r="12" fill="none" stroke="#315D8C" stroke-width="0.7"/>
<path d="M26 36h12l-2 3h-8z" stroke="#B78A55" stroke-width="0.6" opacity="1" fill="#B78A55" stroke-linejoin="round" stroke-linecap="round"/>
<rect x="28" y="40" width="8" height="10" rx="0" fill="#315D8C"/>
<path d="M28 40q8 5 0 10M36 40q-8 5 0 10" stroke="#EAF1F8" stroke-width="1" opacity="1" fill="none" stroke-linejoin="round" stroke-linecap="round"/>
<path d="M26 52h12" stroke="#1E3550" stroke-width="1.5" opacity="1" fill="none" stroke-linejoin="round" stroke-linecap="round"/>
<text x="56" y="49" font-family="Inter,Arial,sans-serif" font-size="18" font-weight="700" fill="#1E3550" text-anchor="start" opacity="1">Ponos</text>
<text x="372" y="48" font-family="Inter,Arial,sans-serif" font-size="11" font-weight="500" fill="#62758A" text-anchor="end" opacity="1">Overview</text>
<path d="M0 75H390" stroke="#DCE5EE" stroke-width="1" opacity="1" fill="none" stroke-linejoin="round" stroke-linecap="round"/>
<rect x="18" y="87" width="354" height="249" rx="16" fill="#FFFFFF" stroke="#DCE5EE" stroke-width="1" opacity="1"/><rect x="35" y="107" width="46" height="46" rx="14" fill="#EAF1F8" stroke="none" stroke-width="0" opacity="1"/><path d="M58 116L75 144H41Z" fill="none" stroke="#315D8C" stroke-width="2.1" stroke-linejoin="round"/><text x="58" y="136" font-family="Inter, Arial, sans-serif" font-size="15" font-weight="700" fill="#315D8C" text-anchor="middle">!</text><text x="35" y="187" font-family="Inter, Arial, sans-serif" font-size="19" font-weight="650" fill="#1E3550" text-anchor="start">Overview unavailable</text><text x="35" y="209" font-family="Inter, Arial, sans-serif" font-size="12" font-weight="400" fill="#62758A" text-anchor="start">Check your connection and try again.</text><text x="35" y="228" font-family="Inter, Arial, sans-serif" font-size="11" font-weight="400" fill="#62758A" text-anchor="start">The server may be temporarily unavailable.</text><rect x="35" y="254" width="128" height="44" rx="10" fill="#315D8C" stroke="none" stroke-width="0" opacity="1"/><text x="99.0" y="280.5" font-family="Inter, Arial, sans-serif" font-size="13" font-weight="600" fill="#FFFFFF" text-anchor="middle">Retry</text><rect x="18" y="352" width="354" height="139" rx="16" fill="#F7FAFD" stroke="#DCE5EE" stroke-width="1" opacity="1"/><text x="35" y="383" font-family="Inter, Arial, sans-serif" font-size="14" font-weight="650" fill="#1E3550" text-anchor="start">Other sections may also be affected</text><text x="35" y="407" font-family="Inter, Arial, sans-serif" font-size="11.5" font-weight="400" fill="#62758A" text-anchor="start">Your data is not shown until the server</text><text x="35" y="426" font-family="Inter, Arial, sans-serif" font-size="11.5" font-weight="400" fill="#62758A" text-anchor="start">responds. You can retry at any time.</text><text x="35" y="465" font-family="Inter, Arial, sans-serif" font-size="12" font-weight="600" fill="#315D8C" text-anchor="start">Open Work Areas  →</text><rect x="18" y="507" width="354" height="112" rx="16" fill="#FFFFFF" stroke="#DCE5EE" stroke-width="1" opacity="1"/><text x="35" y="540" font-family="Inter, Arial, sans-serif" font-size="15" font-weight="650" fill="#1E3550" text-anchor="start">Statistics unavailable</text><text x="35" y="566" font-family="Inter, Arial, sans-serif" font-size="11" font-weight="400" fill="#62758A" text-anchor="start">No unverified or stale values are shown.</text><rect x="0" y="759" width="390" height="85" rx="0" fill="#FFFFFF"/>
<path d="M0 759H390" stroke="#DCE5EE" stroke-width="1" opacity="1" fill="none" stroke-linejoin="round" stroke-linecap="round"/>
<rect x="13.75" y="766" width="70" height="54" rx="12" fill="#EAF1F8"/>
<path d="M40.75 787l8-7 8 7v10h-6v-6h-4v6h-6z" stroke="#315D8C" stroke-width="1.7" opacity="1" fill="none" stroke-linejoin="round" stroke-linecap="round"/>
<text x="48.75" y="823" font-family="Inter,Arial,sans-serif" font-size="10.5" font-weight="650" fill="#315D8C" text-anchor="middle" opacity="1">Overview</text>
<circle cx="146.25" cy="788" r="8" fill="none" stroke="#62758A" stroke-width="1.7"/>
<circle cx="146.25" cy="788" r="3" fill="none" stroke="#62758A" stroke-width="1.5"/>
<path d="M146.25 775v5" stroke="#62758A" stroke-width="1.5" opacity="1" fill="none" stroke-linejoin="round" stroke-linecap="round"/>
<text x="146.25" y="823" font-family="Inter,Arial,sans-serif" font-size="10.5" font-weight="450" fill="#62758A" text-anchor="middle" opacity="1">Work Areas</text>
<circle cx="243.75" cy="788" r="8" fill="none" stroke="#62758A" stroke-width="1.7"/>
<path d="M243.75 775v4M239.75 774h8M243.75 788l3-3" stroke="#62758A" stroke-width="1.7" opacity="1" fill="none" stroke-linejoin="round" stroke-linecap="round"/>
<text x="243.75" y="823" font-family="Inter,Arial,sans-serif" font-size="10.5" font-weight="450" fill="#62758A" text-anchor="middle" opacity="1">Focus</text>
<path d="M334.25 782h13" stroke="#62758A" stroke-width="1.6" opacity="1" fill="none" stroke-linejoin="round" stroke-linecap="round"/>
<path d="M334.25 787h11" stroke="#62758A" stroke-width="1.6" opacity="1" fill="none" stroke-linejoin="round" stroke-linecap="round"/>
<path d="M334.25 792h7" stroke="#62758A" stroke-width="1.6" opacity="1" fill="none" stroke-linejoin="round" stroke-linecap="round"/>
<path d="M345.25 795l5-5 2 2-5 5-3 1z" stroke="#62758A" stroke-width="1.2" opacity="1" fill="none" stroke-linejoin="round" stroke-linecap="round"/>
<text x="341.25" y="823" font-family="Inter,Arial,sans-serif" font-size="10.5" font-weight="450" fill="#62758A" text-anchor="middle" opacity="1">Log Work</text>
<rect x="163.0" y="836" width="64" height="3" rx="2" fill="#1E3550" opacity="0.37"/>
</svg>