<svg xmlns="http://www.w3.org/2000/svg" width="1440" height="900" viewBox="0 0 1440 900">
<style>text{font-family:Inter,Arial,sans-serif}</style>
<rect x="0" y="0" width="1440" height="900" rx="0" fill="#F5F8FC" stroke="none" stroke-width="0" opacity="1"/><path d="M 1007.9999999999999 0 C 1051.2 108.0, 1209.6 144.0, 1440 144.0" fill="none" stroke="#DCE5EE" stroke-width="1" opacity=".35"/><path d="M 1123.2 0 C 1166.4 72.0, 1296.0 99.0, 1440 99.0" fill="none" stroke="#DCE5EE" stroke-width="1" opacity=".22"/><rect x="0" y="0" width="200" height="900" rx="0" fill="#FBFCFE" stroke="none" stroke-width="0" opacity="1"/><line x1="200" y1="0" x2="200" y2="900" stroke="#DCE5EE" stroke-width="1" opacity="1"/><g transform="translate(18 18) scale(0.15625)"><circle cx="128" cy="128" r="111" fill="#EAF1F8"/><circle cx="128" cy="128" r="101" fill="none" stroke="#B78A55" stroke-width="4.3"/><path d="M95 180 C75 165 61 143 72 109" fill="none" stroke="#315D8C" stroke-width="3" stroke-linecap="round"/><path d="M161 180 C181 165 195 143 184 109" fill="none" stroke="#315D8C" stroke-width="3" stroke-linecap="round"/><path d="M99 91 H157 L153 102 H103 Z" fill="#B78A55"/><path d="M105 104 H151 V169 H105 Z" fill="#1E3550"/><path d="M100 170 H156 L162 181 H94 Z" fill="#315D8C"/><path d="M115 111 H141 C140 122 134 126 128 133 C122 126 116 122 115 111Z" fill="#EAF1F8"/><path d="M128 141 C135 149 139 154 141 163 H115 C117 154 121 149 128 141 Z" fill="#EAF1F8"/><path d="M120 157 H136 L128 153 Z" fill="#B78A55"/></g><text x="68" y="43.2" font-family="Inter, Arial, sans-serif" font-size="18" font-weight="600" fill="#1E3550" text-anchor="start" opacity="1">Ponos</text><rect x="4" y="82" width="48" height="44" rx="10" fill="#EAF1F8" stroke="none" stroke-width="0" opacity="1"/><path d="M 20 104 L 28 97 L 36 104 V 112 H 31 V 106 H 25 V 112 H 20 Z" fill="none" stroke="#315D8C" stroke-width="1.8" stroke-linejoin="round"/><text x="72" y="109" font-family="Inter, Arial, sans-serif" font-size="13" font-weight="600" fill="#1E3550" text-anchor="start" opacity="1">Overview</text><circle cx="28" cy="162" r="7" fill="none" stroke="#62758A" stroke-width="1.8" opacity="1"/><circle cx="28" cy="162" r="3" fill="none" stroke="#62758A" stroke-width="1.6" opacity="1"/><circle cx="28" cy="162" r="1.2" fill="#62758A" stroke="none" stroke-width="0" opacity="1"/><text x="72" y="167" font-family="Inter, Arial, sans-serif" font-size="13" font-weight="400" fill="#62758A" text-anchor="start" opacity="1">Work Areas</text><circle cx="28" cy="220" r="6" fill="none" stroke="#62758A" stroke-width="1.8" opacity="1"/><line x1="28" y1="211" x2="28" y2="214" stroke="#62758A" stroke-width="1.8" opacity="1"/><line x1="25" y1="211" x2="31" y2="211" stroke="#62758A" stroke-width="1.8" opacity="1"/><line x1="28" y1="220" x2="28" y2="216" stroke="#62758A" stroke-width="1.6" opacity="1"/><text x="72" y="225" font-family="Inter, Arial, sans-serif" font-size="13" font-weight="400" fill="#62758A" text-anchor="start" opacity="1">Focus</text><line x1="21" y1="273" x2="29" y2="273" stroke="#62758A" stroke-width="1.7" opacity="1"/><line x1="21" y1="277" x2="29" y2="277" stroke="#62758A" stroke-width="1.7" opacity="1"/><line x1="21" y1="281" x2="27" y2="281" stroke="#62758A" stroke-width="1.7" opacity="1"/><path d="M 29 284 L 35 278 M 32 277 L 36 281" stroke="#62758A" stroke-width="1.7" fill="none" stroke-linecap="round"/><text x="72" y="283" font-family="Inter, Arial, sans-serif" font-size="13" font-weight="400" fill="#62758A" text-anchor="start" opacity="1">Log Work</text><rect x="240" y="24" width="1160" height="148" rx="16" fill="#F8F2EA" stroke="#E7D8C8" stroke-width="1" opacity="1"/><rect x="254" y="40" width="3" height="34" rx="2" fill="#B78A55" stroke="none" stroke-width="0" opacity="1"/><text x="268" y="59" font-family="Inter, Arial, sans-serif" font-size="16" font-weight="600" fill="#1E3550" text-anchor="start" opacity="1">Streak consistency</text><text x="268" y="81" font-family="Inter, Arial, sans-serif" font-size="11" font-weight="400" fill="#62758A" text-anchor="start" opacity="1">Daily and weekly momentum at a glance.</text><text x="505" y="52" font-family="Inter, Arial, sans-serif" font-size="10" font-weight="500" fill="#62758A" text-anchor="start" opacity="1">Daily streak</text><text x="505" y="77" font-family="Inter, Arial, sans-serif" font-size="24" font-weight="600" fill="#1E3550" text-anchor="start" opacity="1">6 days</text><text x="660" y="52" font-family="Inter, Arial, sans-serif" font-size="10" font-weight="500" fill="#62758A" text-anchor="start" opacity="1">Weekly streak</text><text x="660" y="77" font-family="Inter, Arial, sans-serif" font-size="24" font-weight="600" fill="#1E3550" text-anchor="start" opacity="1">3 weeks</text><text x="815" y="52" font-family="Inter, Arial, sans-serif" font-size="10" font-weight="500" fill="#62758A" text-anchor="start" opacity="1">Recent 7 days</text><circle cx="825" cy="83" r="9" fill="#315D8C" stroke="#315D8C" stroke-width="1.2" opacity="1"/><text x="825" y="87" font-family="Inter, Arial, sans-serif" font-size="10" font-weight="700" fill="#FFFFFF" text-anchor="middle" opacity="1">✓</text><text x="825" y="103" font-family="Inter, Arial, sans-serif" font-size="8" font-weight="500" fill="#62758A" text-anchor="middle" opacity="1">M</text><circle cx="851" cy="83" r="9" fill="#315D8C" stroke="#315D8C" stroke-width="1.2" opacity="1"/><text x="851" y="87" font-family="Inter, Arial, sans-serif" font-size="10" font-weight="700" fill="#FFFFFF" text-anchor="middle" opacity="1">✓</text><text x="851" y="103" font-family="Inter, Arial, sans-serif" font-size="8" font-weight="500" fill="#62758A" text-anchor="middle" opacity="1">T</text><circle cx="877" cy="83" r="9" fill="#315D8C" stroke="#315D8C" stroke-width="1.2" opacity="1"/><text x="877" y="87" font-family="Inter, Arial, sans-serif" font-size="10" font-weight="700" fill="#FFFFFF" text-anchor="middle" opacity="1">✓</text><text x="877" y="103" font-family="Inter, Arial, sans-serif" font-size="8" font-weight="500" fill="#62758A" text-anchor="middle" opacity="1">W</text><circle cx="903" cy="83" r="9" fill="#315D8C" stroke="#315D8C" stroke-width="1.2" opacity="1"/><text x="903" y="87" font-family="Inter, Arial, sans-serif" font-size="10" font-weight="700" fill="#FFFFFF" text-anchor="middle" opacity="1">✓</text><text x="903" y="103" font-family="Inter, Arial, sans-serif" font-size="8" font-weight="500" fill="#62758A" text-anchor="middle" opacity="1">T</text><circle cx="929" cy="83" r="9" fill="#315D8C" stroke="#315D8C" stroke-width="1.2" opacity="1"/><text x="929" y="87" font-family="Inter, Arial, sans-serif" font-size="10" font-weight="700" fill="#FFFFFF" text-anchor="middle" opacity="1">✓</text><text x="929" y="103" font-family="Inter, Arial, sans-serif" font-size="8" font-weight="500" fill="#62758A" text-anchor="middle" opacity="1">F</text><circle cx="955" cy="83" r="9" fill="#FFFFFF" stroke="#62758A" stroke-width="1.2" opacity="1"/><text x="955" y="86" font-family="Inter, Arial, sans-serif" font-size="10" font-weight="700" fill="#62758A" text-anchor="middle" opacity="1">–</text><text x="955" y="103" font-family="Inter, Arial, sans-serif" font-size="8" font-weight="500" fill="#62758A" text-anchor="middle" opacity="1">S</text><circle cx="981" cy="83" r="9" fill="#FFFFFF" stroke="#B78A55" stroke-width="1.2" opacity="1"/><text x="981" y="87" font-family="Inter, Arial, sans-serif" font-size="10" font-weight="700" fill="#B78A55" text-anchor="middle" opacity="1">…</text><text x="981" y="103" font-family="Inter, Arial, sans-serif" font-size="8" font-weight="500" fill="#62758A" text-anchor="middle" opacity="1">S</text><text x="1190" y="52" font-family="Inter, Arial, sans-serif" font-size="10" font-weight="600" fill="#1E3550" text-anchor="start" opacity="1">Goals</text><text x="1190" y="74" font-family="Inter, Arial, sans-serif" font-size="9" font-weight="500" fill="#62758A" text-anchor="start" opacity="1">Today</text><text x="1190" y="92" font-family="Inter, Arial, sans-serif" font-size="13" font-weight="600" fill="#1E3550" text-anchor="start" opacity="1">4h</text><text x="1262" y="74" font-family="Inter, Arial, sans-serif" font-size="9" font-weight="500" fill="#62758A" text-anchor="start" opacity="1">This week</text><text x="1262" y="92" font-family="Inter, Arial, sans-serif" font-size="13" font-weight="600" fill="#1E3550" text-anchor="start" opacity="1">25h</text><text x="1374" y="152" font-family="Inter, Arial, sans-serif" font-size="10" font-weight="600" fill="#315D8C" text-anchor="end" opacity="1">Edit goals</text><rect x="240" y="192" width="430" height="260" rx="16" fill="#EAF1F8" stroke="#DCE5EE" stroke-width="1" opacity="1"/><text x="256" y="221" font-family="Inter, Arial, sans-serif" font-size="15" font-weight="600" fill="#1E3550" text-anchor="start" opacity="1">Today</text><text x="256" y="254" font-family="Inter, Arial, sans-serif" font-size="26" font-weight="600" fill="#1E3550" text-anchor="start" opacity="1">1h 30m</text><text x="256" y="274" font-family="Inter, Arial, sans-serif" font-size="10" font-weight="400" fill="#62758A" text-anchor="start" opacity="1">of 4h focused</text><rect x="256" y="286" width="163.4" height="5" rx="3" fill="#D9E5F0" stroke="none" stroke-width="0" opacity="1"/><rect x="256" y="286" width="61.275000000000006" height="5" rx="3" fill="#315D8C" stroke="none" stroke-width="0" opacity="1"/><g transform="translate(552 218) scale(0.6142857142857143 0.7)" opacity="0.96">
      <path d="M26 18H114" stroke="#315D8C" stroke-width="7" stroke-linecap="round"/>
      <path d="M30 36H110" stroke="#315D8C" stroke-width="6" stroke-linecap="round"/>
      <circle cx="26" cy="37" r="10" fill="none" stroke="#315D8C" stroke-width="3.6"/>
      <circle cx="114" cy="37" r="10" fill="none" stroke="#315D8C" stroke-width="3.6"/>
      <path d="M45 49H95" stroke="#B78A55" stroke-width="3" stroke-linecap="round"/>
      <path d="M43 58V126 M57 58V126 M70 58V126 M83 58V126 M97 58V126" stroke="#315D8C" stroke-width="6.5" stroke-linecap="round"/>
      <path d="M38 138H102 M31 151H109" stroke="#315D8C" stroke-width="6.5" stroke-linecap="round"/>
    </g><rect x="256" y="398" width="195.0" height="42" rx="10" fill="#315D8C" stroke="none" stroke-width="0" opacity="1"/><path d="M 270 414.0 V 424.0 L 279 419.0 Z" fill="#FFFFFF"/><text x="353.5" y="424.0" font-family="Inter, Arial, sans-serif" font-size="12" font-weight="600" fill="#FFFFFF" text-anchor="middle" opacity="1">Start Focus</text><rect x="459.0" y="398" width="195.0" height="42" rx="10" fill="#FFFFFF" stroke="#315D8C" stroke-width="1" opacity="1"/><text x="556.5" y="424.0" font-family="Inter, Arial, sans-serif" font-size="12" font-weight="500" fill="#315D8C" text-anchor="middle" opacity="1">Log Work</text><rect x="690" y="192" width="710" height="260" rx="16" fill="#FFFFFF" stroke="#DCE5EE" stroke-width="1" opacity="1"/><text x="706" y="220" font-family="Inter, Arial, sans-serif" font-size="14" font-weight="600" fill="#1E3550" text-anchor="start" opacity="1">Work Areas</text><path d="M 1376 210 l 3.75 3.75 l -3.75 3.75" fill="none" stroke="#62758A" stroke-width="1.35" stroke-linecap="round" stroke-linejoin="round"/><text x="706" y="248" font-family="Inter, Arial, sans-serif" font-size="9" font-weight="500" fill="#62758A" text-anchor="start" opacity="1">Focus Areas</text><text x="1382" y="248" font-family="Inter, Arial, sans-serif" font-size="10" font-weight="500" fill="#62758A" text-anchor="end" opacity="1">2 / 3 complete</text><text x="706" y="274" font-family="Inter, Arial, sans-serif" font-size="9" font-weight="500" fill="#62758A" text-anchor="start" opacity="1">Special Activities</text><text x="1382" y="274" font-family="Inter, Arial, sans-serif" font-size="10" font-weight="500" fill="#62758A" text-anchor="end" opacity="1">1h today</text><rect x="240" y="472" width="1160" height="150" rx="16" fill="#FFFFFF" stroke="#DCE5EE" stroke-width="1" opacity="1"/><text x="256" y="500" font-family="Inter, Arial, sans-serif" font-size="14" font-weight="600" fill="#1E3550" text-anchor="start" opacity="1">Work statistics</text><text x="256.0" y="530" font-family="Inter, Arial, sans-serif" font-size="10" font-weight="500" fill="#62758A" text-anchor="start" opacity="1">Days</text><text x="256.0" y="556" font-family="Inter, Arial, sans-serif" font-size="18" font-weight="600" fill="#1E3550" text-anchor="start" opacity="1">24</text><text x="538.0" y="530" font-family="Inter, Arial, sans-serif" font-size="10" font-weight="500" fill="#62758A" text-anchor="start" opacity="1">Focused</text><text x="538.0" y="556" font-family="Inter, Arial, sans-serif" font-size="18" font-weight="600" fill="#1E3550" text-anchor="start" opacity="1">86h</text><text x="820.0" y="530" font-family="Inter, Arial, sans-serif" font-size="10" font-weight="500" fill="#62758A" text-anchor="start" opacity="1">Rest</text><text x="820.0" y="556" font-family="Inter, Arial, sans-serif" font-size="18" font-weight="600" fill="#1E3550" text-anchor="start" opacity="1">12h</text><text x="1102.0" y="530" font-family="Inter, Arial, sans-serif" font-size="10" font-weight="500" fill="#62758A" text-anchor="start" opacity="1">Tracked</text><text x="1102.0" y="556" font-family="Inter, Arial, sans-serif" font-size="18" font-weight="600" fill="#1E3550" text-anchor="start" opacity="1">98h</text>
</svg>